<svg xmlns="http://www.w3.org/2000/svg" width="27.759" height="27.707" viewBox="0 0 27.759 27.707"><defs><style>.a{fill:#7de2bb;}.b{fill:#fff;fill-rule:evenodd;}</style></defs><g transform="translate(-322 -31)"><rect class="a" width="27.707" height="27.759" rx="13.854" transform="translate(322 58.707) rotate(-90)"/><path class="b" d="M9.167,8V1A.965.965,0,0,0,8.25,0a.908.908,0,0,0-.917,1V8H.917A.908.908,0,0,0,0,9a.908.908,0,0,0,.917,1H7.334v7a.965.965,0,0,0,.917,1,.908.908,0,0,0,.917-1V10h6.417A.962.962,0,0,0,16.5,9a.908.908,0,0,0-.917-1Z" transform="translate(328 36)"/></g></svg>