<svg xmlns="http://www.w3.org/2000/svg" xmlns:xlink="http://www.w3.org/1999/xlink" width="25" height="25" viewBox="0 0 25 25"><defs><style>.a,.b{clip-path:url(#a);}.c{stroke-width:0.049px;}</style><clipPath id="a"><rect class="a" width="25" height="25" transform="translate(112 23)"/></clipPath></defs><g class="b" transform="translate(-112 -23)"><g transform="translate(112 24.575)"><path class="c" d="M16.718,11.687a6.087,6.087,0,0,0-10.25,0L3.757,15.916a3.853,3.853,0,0,0,4.794,5.607L8.6,21.5a7.574,7.574,0,0,1,6.033.022,3.832,3.832,0,0,0,1.546.327,3.881,3.881,0,0,0,.863-.1,3.853,3.853,0,0,0,2.386-5.836ZM18,19.547a2.374,2.374,0,0,1-2.776.634,9.042,9.042,0,0,0-7.261,0l-.033.014a2.388,2.388,0,0,1-2.939-3.488L7.7,12.478a4.622,4.622,0,0,1,7.783,0l2.711,4.229a2.374,2.374,0,0,1-.2,2.841Zm0,0"/><path class="c" d="M4.487,11.682a2.956,2.956,0,0,0,1.725-1.83,3.819,3.819,0,0,0-.068-2.633,3.821,3.821,0,0,0-1.715-2,2.956,2.956,0,0,0-2.506-.2A3.384,3.384,0,0,0,.267,9.482a3.57,3.57,0,0,0,3.21,2.387,2.8,2.8,0,0,0,1.01-.187ZM1.635,8.955A1.933,1.933,0,0,1,2.45,6.386a1.36,1.36,0,0,1,.491-.09,1.653,1.653,0,0,1,.789.212A2.354,2.354,0,0,1,4.777,7.745a2.352,2.352,0,0,1,.052,1.62,1.515,1.515,0,0,1-.868.948h0A1.932,1.932,0,0,1,1.635,8.955Zm0,0"/><path class="c" d="M9.747,8.368a3.958,3.958,0,0,0,3.672-4.184A3.958,3.958,0,0,0,9.747,0,3.958,3.958,0,0,0,6.075,4.185,3.957,3.957,0,0,0,9.747,8.368Zm0-6.9a2.507,2.507,0,0,1,2.207,2.719A2.506,2.506,0,0,1,9.747,6.9,2.506,2.506,0,0,1,7.54,4.185,2.506,2.506,0,0,1,9.747,1.465Zm0,0"/><path class="c" d="M16.089,9.4h0a2.993,2.993,0,0,0,.946.153A3.806,3.806,0,0,0,20.5,6.823a4.1,4.1,0,0,0-.059-2.831,3.1,3.1,0,0,0-4.6-1.529A4.1,4.1,0,0,0,14.1,4.695a3.63,3.63,0,0,0,1.991,4.7Zm-.6-4.239A2.639,2.639,0,0,1,16.6,3.716a1.642,1.642,0,0,1,2.485.826,2.639,2.639,0,0,1,.026,1.819,2.179,2.179,0,0,1-2.558,1.645,2.178,2.178,0,0,1-1.063-2.849Zm0,0"/><path class="c" d="M23.822,8.908h0a3.386,3.386,0,0,0-4.656,1,3.384,3.384,0,0,0,.407,4.742A2.871,2.871,0,0,0,21.3,15.2a3.712,3.712,0,0,0,2.932-1.553,3.385,3.385,0,0,0-.407-4.742Zm-.77,3.87a1.933,1.933,0,0,1-2.606.69,1.933,1.933,0,0,1-.1-2.693,2.25,2.25,0,0,1,1.745-.964,1.432,1.432,0,0,1,.862.274,1.933,1.933,0,0,1,.1,2.692Zm0,0"/></g></g></svg>