<?xml version="1.0" standalone="no"?>
<!DOCTYPE svg PUBLIC "-//W3C//DTD SVG 20010904//EN"
 "http://www.w3.org/TR/2001/REC-SVG-20010904/DTD/svg10.dtd">
<svg version="1.0" xmlns="http://www.w3.org/2000/svg"
 width="474.000000pt" height="441.000000pt" viewBox="0 0 474.000000 441.000000"
 preserveAspectRatio="xMidYMid meet">

<g transform="translate(0.000000,441.000000) scale(0.100000,-0.100000)">
<path d="M2080 3693 c-228 -23 -457 -63 -626 -110 l-92 -25 -6 -162 c-3 -88
-9 -695 -12 -1348 l-6 -1188 446 0 446 0 0 455 0 455 73 0 c150 0 418 46 567
97 192 66 321 143 441 262 167 167 240 352 241 606 0 407 -208 699 -616 864
-181 72 -367 102 -632 99 -104 0 -205 -3 -224 -5z m773 -483 c33 -37 34 -71 4
-125 -46 -82 -166 -128 -246 -95 -39 16 -62 63 -50 103 37 131 214 202 292
117z m287 -165 c125 -65 40 -232 -129 -252 -96 -11 -179 46 -167 115 17 108
194 190 296 137z m-680 -49 c208 -71 305 -229 234 -382 -26 -56 -158 -183
-230 -222 -83 -43 -132 -44 -168 -1 -32 37 -33 75 -6 154 29 83 26 154 -11
245 -16 41 -32 95 -36 120 -4 40 -2 50 21 77 40 47 77 49 196 9z m673 -285
c83 -36 121 -122 81 -180 -39 -54 -164 -78 -242 -46 -70 30 -118 94 -107 144
7 32 48 75 85 90 42 17 135 13 183 -8z m-272 -242 c20 -10 48 -32 63 -49 103
-123 -46 -234 -204 -152 -62 31 -88 62 -96 113 -5 30 -1 42 23 68 45 51 135
60 214 20z"/>
</g>
</svg>
